<svg xmlns="http://www.w3.org/2000/svg" version="1.0" preserveAspectRatio="xMidYMid meet" viewBox="12.48 7 200.69 314.69">
 <g fill="#d6a139" fill-rule="evenodd">
  <path d="M28.5 320.4 C28.2 319.5 28 317.3 28 315.4 C28 311.4 29.4 310.4 36.5 309.5 C49.4 307.8 56.3 305.6 60.1 301.9 C65.7 296.6 65.2 294.9 57 290 C39.7 279.5 25.5 261.1 18.2 239.5 C12.6 222.8 12.4 221.6 12.5 201.5 C12.5 183.1 13.8 173.2 17 165.5 C17.4 164.4 18.6 161.2 19.6 158.5 C21.8 152.4 27.2 142 31.3 136 C35.2 130.2 36.5 128.9 37.5 129.7 C37.9 130.1 37.9 129.9 37.6 129.2 C36.6 127.6 45.3 118.5 54.4 111.5 C63.8 104.3 73.2 99.3 84.3 95.5 C94.9 91.9 94.2 93.3 95.9 73.5 C96.9 61.9 96.8 60.3 95.2 57.1 C92.9 52.4 90.2 51.8 76.3 52.6 C65.5 53.2 65.1 53.2 64 51 C62.5 48.3 63.5 43.2 65.8 42.1 C66.7 41.6 73.1 39.3 80 36.9 C95.3 31.7 112.8 23.5 123.5 16.5 C132 10.8 138.9 6.9 140.3 7 C140.8 7 141.9 7.7 142.7 8.7 C143.5 9.7 143.8 9.8 143.4 9 C142.9 8.1 143 7.9 143.9 8.4 C144.9 9 145 11 144.6 15.8 C143.5 26.7 142.8 31 142.1 30.5 C141.7 30.3 141.4 32 141.4 34.3 C141.3 38.3 140.6 44 137.5 67.5 C136.6 73.5 135.7 81 135.3 84.1 L134.7 89.8 139.1 90.3 C141.5 90.6 147.7 91.3 153 91.8 C158.2 92.4 164.5 93.3 167 93.8 C173.5 95.2 180.2 97 182.5 97.9 C183.6 98.3 187.2 99.7 190.5 101 C193.8 102.3 198.2 104.2 200.4 105.4 C204.9 107.7 205.4 109.1 206.4 122.5 C206.7 126.9 207.6 136.8 208.3 144.5 C209.8 159.7 209.6 161 204.9 161 C201.5 160.9 200.5 159.4 199.1 151.9 C198.1 146.6 194.2 137.1 190.2 130.5 C188 126.8 175.2 114.1 172.5 112.8 C171.4 112.3 169.1 111.1 167.5 110.1 C161 106.2 150.8 103.6 141.5 103.5 L132.5 103.5 131.2 115.5 C130.6 122.1 129.5 129.3 129 131.6 C128.4 133.9 128 137.7 128 139.9 C128 142.2 127.5 146 127 148.3 C126.5 150.6 125.4 158.1 124.5 165 C123.6 171.8 122.3 181.7 121.5 187 C119.6 199.3 119 204.1 118.9 206 C118.9 206.8 118.4 209.9 117.9 213 C117.4 216 116.3 222.7 115.5 228 C114.7 233.2 113.3 241.8 112.4 247.2 C107.3 279.3 108.1 288 116.7 292.8 C120.5 294.9 122.2 295.1 133.7 295.1 C154.8 295 169.2 289.3 183 275.7 C188 270.9 197.9 257.3 197.9 255.5 C197.9 255.1 198.6 253.3 199.4 251.6 C200.3 249.9 201.8 246 202.9 243 C205.1 236.4 206.7 235.1 210.6 236.5 C213.8 237.6 213.7 237.5 212 249 C211.4 253.1 210.1 261.7 209.2 268.1 C208.2 274.6 207.1 280.2 206.7 280.6 C206.3 281 206 282.3 206 283.5 C205.9 287.5 196.7 295.2 194 293.5 C193.5 293.2 192.9 293.6 192.6 294.4 C192.3 295.1 190.6 296.1 188.8 296.5 C186.9 296.9 185 297.5 184.5 297.9 C183.9 298.3 182.3 299 181 299.3 C179.6 299.7 176 300.7 173 301.5 C164.9 303.7 154.9 305.1 142.5 305.8 C136.2 306.2 131.5 306.9 131.5 307.5 C131.5 308 132.9 308.6 134.7 308.8 C136.5 308.9 138 309.4 138 309.9 C138 310.4 141 310.8 144.6 310.8 C148.8 310.9 151.6 311.4 152.1 312.2 C153 313.7 152.4 319.9 151.2 321.1 C150.7 321.6 141.4 321.6 130.4 321.1 C110.6 320.3 68.3 320.5 42.5 321.5 C30.7 321.9 28.9 321.7 28.5 320.4 M65.5 264.1 C63.5 260.8 62 257.7 62 257.1 C62 256.5 61.5 256 61 256 C60.4 256 60 254.8 60 253.4 C60 252 59.5 251.1 59 251.4 C58.4 251.8 58.2 251.4 58.6 250.5 C58.9 249.6 58.7 248.4 58.2 247.7 C57.1 246.4 55.7 240.5 53.4 227.5 C51.7 218 51.5 196.4 53 187.1 C55.5 171.5 57.1 163.3 57.9 161.5 C58.4 160.4 59.5 157 60.4 154 C62 148.9 67.3 137.3 70.2 132.5 C75.5 123.9 89.9 109.6 91.5 111.2 C91.8 111.5 91.6 113.9 91 116.6 C90.5 119.2 89.8 125.1 89.5 129.5 C89.2 133.9 88.7 138.8 88.5 140.5 C88.2 142.1 87.1 151.1 86 160.5 C83.9 177.8 82.4 189.1 80.9 199 C79.7 207.2 77.1 225.4 76 234.5 C75.4 238.9 74.5 244.9 74 248 C73.5 251 72.6 257.2 72 261.7 C71.4 266.2 70.5 270 70 270 C69.4 270 67.4 267.3 65.5 264.1 "/>
 </g>
</svg>